<mxfile host="app.diagrams.net" modified="2022-10-27T12:23:56.727Z" agent="5.0 (Macintosh; Intel Mac OS X 10_15_7) AppleWebKit/605.1.15 (KHTML, like Gecko) Version/15.4 Safari/605.1.15" etag="18m_153oRuOD8APUITtQ" version="20.5.1" type="github">
  <diagram id="t9eouq4o3u0TFtpA3VCl" name="Page-1">
    <mxGraphModel dx="1487" dy="1123" grid="1" gridSize="10" guides="1" tooltips="1" connect="1" arrows="1" fold="1" page="1" pageScale="1" pageWidth="827" pageHeight="1169" math="0" shadow="0">
      <root>
        <mxCell id="0" />
        <mxCell id="1" parent="0" />
        <mxCell id="JB5CNt8v3fBcQ30ta5E3-36" value="" style="rounded=0;whiteSpace=wrap;html=1;fontSize=16;fillColor=#fff2cc;strokeColor=#d6b656;" vertex="1" parent="1">
          <mxGeometry x="470" y="190" width="270" height="270" as="geometry" />
        </mxCell>
        <mxCell id="JB5CNt8v3fBcQ30ta5E3-1" value="" style="rounded=0;whiteSpace=wrap;html=1;fillColor=#d5e8d4;strokeColor=#82b366;" vertex="1" parent="1">
          <mxGeometry x="490" y="200" width="150" height="250" as="geometry" />
        </mxCell>
        <mxCell id="JB5CNt8v3fBcQ30ta5E3-2" value="&lt;font style=&quot;font-size: 14px;&quot;&gt;&lt;b&gt;HV&lt;/b&gt;&lt;/font&gt;" style="rounded=0;whiteSpace=wrap;html=1;fillColor=#dae8fc;strokeColor=#6c8ebf;" vertex="1" parent="1">
          <mxGeometry x="480" y="200" width="40" height="50" as="geometry" />
        </mxCell>
        <mxCell id="JB5CNt8v3fBcQ30ta5E3-3" value="&lt;font style=&quot;font-size: 14px;&quot;&gt;&lt;b&gt;LV&lt;/b&gt;&lt;/font&gt;" style="rounded=0;whiteSpace=wrap;html=1;fillColor=#f8cecc;strokeColor=#b85450;" vertex="1" parent="1">
          <mxGeometry x="480" y="260" width="40" height="50" as="geometry" />
        </mxCell>
        <mxCell id="JB5CNt8v3fBcQ30ta5E3-4" value="&lt;b&gt;&lt;font style=&quot;font-size: 14px;&quot;&gt;AMUX&lt;/font&gt;&lt;/b&gt;" style="rounded=0;whiteSpace=wrap;html=1;fillColor=#ffe6cc;strokeColor=#d79b00;" vertex="1" parent="1">
          <mxGeometry x="550" y="242.75" width="50" height="50" as="geometry" />
        </mxCell>
        <mxCell id="JB5CNt8v3fBcQ30ta5E3-6" value="&lt;b&gt;&lt;font style=&quot;font-size: 14px;&quot;&gt;ASIC&lt;/font&gt;&lt;/b&gt;" style="whiteSpace=wrap;html=1;aspect=fixed;direction=west;fillColor=#f5f5f5;fontColor=#333333;strokeColor=#666666;" vertex="1" parent="1">
          <mxGeometry x="600" y="310" width="30" height="30" as="geometry" />
        </mxCell>
        <mxCell id="JB5CNt8v3fBcQ30ta5E3-7" value="" style="rounded=0;whiteSpace=wrap;html=1;" vertex="1" parent="1">
          <mxGeometry x="500" y="325" width="80" height="120" as="geometry" />
        </mxCell>
        <mxCell id="JB5CNt8v3fBcQ30ta5E3-8" value="&lt;b&gt;&lt;font style=&quot;font-size: 16px;&quot;&gt;Data Mezzanine&lt;/font&gt;&lt;/b&gt;" style="text;html=1;strokeColor=none;fillColor=none;align=center;verticalAlign=middle;whiteSpace=wrap;rounded=0;fontSize=14;rotation=90;" vertex="1" parent="1">
          <mxGeometry x="510" y="372.75" width="60" height="30" as="geometry" />
        </mxCell>
        <mxCell id="JB5CNt8v3fBcQ30ta5E3-9" value="" style="rounded=0;whiteSpace=wrap;html=1;fontSize=16;" vertex="1" parent="1">
          <mxGeometry x="650" y="200" width="80" height="250" as="geometry" />
        </mxCell>
        <mxCell id="JB5CNt8v3fBcQ30ta5E3-16" value="" style="group" vertex="1" connectable="0" parent="1">
          <mxGeometry x="680" y="234" width="31.5" height="55.5" as="geometry" />
        </mxCell>
        <mxCell id="JB5CNt8v3fBcQ30ta5E3-15" value="" style="rounded=0;whiteSpace=wrap;html=1;fontSize=16;rotation=90;" vertex="1" parent="JB5CNt8v3fBcQ30ta5E3-16">
          <mxGeometry x="-12" y="12" width="55.5" height="31.5" as="geometry" />
        </mxCell>
        <mxCell id="JB5CNt8v3fBcQ30ta5E3-13" value="" style="whiteSpace=wrap;html=1;aspect=fixed;fontSize=16;fillColor=#f5f5f5;strokeColor=#666666;gradientColor=#b3b3b3;" vertex="1" parent="JB5CNt8v3fBcQ30ta5E3-16">
          <mxGeometry x="6" y="5" width="20" height="20" as="geometry" />
        </mxCell>
        <mxCell id="JB5CNt8v3fBcQ30ta5E3-14" value="" style="whiteSpace=wrap;html=1;aspect=fixed;fontSize=16;fillColor=#f5f5f5;strokeColor=#666666;gradientColor=#b3b3b3;" vertex="1" parent="JB5CNt8v3fBcQ30ta5E3-16">
          <mxGeometry x="6" y="30" width="20" height="20" as="geometry" />
        </mxCell>
        <mxCell id="JB5CNt8v3fBcQ30ta5E3-17" value="" style="group" vertex="1" connectable="0" parent="1">
          <mxGeometry x="680" y="297.25" width="31.5" height="55.5" as="geometry" />
        </mxCell>
        <mxCell id="JB5CNt8v3fBcQ30ta5E3-18" value="" style="rounded=0;whiteSpace=wrap;html=1;fontSize=16;rotation=90;" vertex="1" parent="JB5CNt8v3fBcQ30ta5E3-17">
          <mxGeometry x="-12" y="12" width="55.5" height="31.5" as="geometry" />
        </mxCell>
        <mxCell id="JB5CNt8v3fBcQ30ta5E3-19" value="" style="whiteSpace=wrap;html=1;aspect=fixed;fontSize=16;fillColor=#f5f5f5;strokeColor=#666666;gradientColor=#b3b3b3;" vertex="1" parent="JB5CNt8v3fBcQ30ta5E3-17">
          <mxGeometry x="6" y="5" width="20" height="20" as="geometry" />
        </mxCell>
        <mxCell id="JB5CNt8v3fBcQ30ta5E3-20" value="" style="whiteSpace=wrap;html=1;aspect=fixed;fontSize=16;fillColor=#f5f5f5;strokeColor=#666666;gradientColor=#b3b3b3;" vertex="1" parent="JB5CNt8v3fBcQ30ta5E3-17">
          <mxGeometry x="6" y="30" width="20" height="20" as="geometry" />
        </mxCell>
        <mxCell id="JB5CNt8v3fBcQ30ta5E3-21" value="" style="group" vertex="1" connectable="0" parent="1">
          <mxGeometry x="680" y="360" width="31.5" height="55.5" as="geometry" />
        </mxCell>
        <mxCell id="JB5CNt8v3fBcQ30ta5E3-22" value="" style="rounded=0;whiteSpace=wrap;html=1;fontSize=16;rotation=90;" vertex="1" parent="JB5CNt8v3fBcQ30ta5E3-21">
          <mxGeometry x="-12" y="12" width="55.5" height="31.5" as="geometry" />
        </mxCell>
        <mxCell id="JB5CNt8v3fBcQ30ta5E3-23" value="" style="whiteSpace=wrap;html=1;aspect=fixed;fontSize=16;fillColor=#f5f5f5;strokeColor=#666666;gradientColor=#b3b3b3;" vertex="1" parent="JB5CNt8v3fBcQ30ta5E3-21">
          <mxGeometry x="6" y="5" width="20" height="20" as="geometry" />
        </mxCell>
        <mxCell id="JB5CNt8v3fBcQ30ta5E3-24" value="" style="whiteSpace=wrap;html=1;aspect=fixed;fontSize=16;fillColor=#f5f5f5;strokeColor=#666666;gradientColor=#b3b3b3;" vertex="1" parent="JB5CNt8v3fBcQ30ta5E3-21">
          <mxGeometry x="6" y="30" width="20" height="20" as="geometry" />
        </mxCell>
        <mxCell id="JB5CNt8v3fBcQ30ta5E3-37" value="&lt;b&gt;&lt;font style=&quot;font-size: 14px;&quot;&gt;AlN PCB&lt;/font&gt;&lt;/b&gt;" style="text;html=1;strokeColor=none;fillColor=none;align=center;verticalAlign=middle;whiteSpace=wrap;rounded=0;fontSize=16;" vertex="1" parent="1">
          <mxGeometry x="660" y="200" width="60" height="30" as="geometry" />
        </mxCell>
        <mxCell id="JB5CNt8v3fBcQ30ta5E3-38" value="&lt;b&gt;Module support: passive or cooled&lt;/b&gt;" style="text;html=1;strokeColor=none;fillColor=none;align=left;verticalAlign=middle;whiteSpace=wrap;rounded=0;fontSize=14;" vertex="1" parent="1">
          <mxGeometry x="520" y="470" width="150" height="30" as="geometry" />
        </mxCell>
        <mxCell id="JB5CNt8v3fBcQ30ta5E3-39" value="&lt;b&gt;ASIC test board w or w/o sensor board&lt;/b&gt;" style="text;html=1;strokeColor=none;fillColor=none;align=left;verticalAlign=middle;whiteSpace=wrap;rounded=0;fontSize=14;" vertex="1" parent="1">
          <mxGeometry x="490" y="150" width="150" height="30" as="geometry" />
        </mxCell>
        <mxCell id="JB5CNt8v3fBcQ30ta5E3-45" value="" style="group;fillColor=none;glass=0;" vertex="1" connectable="0" parent="1">
          <mxGeometry x="310" y="220.25" width="120" height="95" as="geometry" />
        </mxCell>
        <mxCell id="JB5CNt8v3fBcQ30ta5E3-44" value="" style="group" vertex="1" connectable="0" parent="JB5CNt8v3fBcQ30ta5E3-45">
          <mxGeometry y="5" width="120" height="90" as="geometry" />
        </mxCell>
        <mxCell id="JB5CNt8v3fBcQ30ta5E3-40" value="" style="rounded=0;whiteSpace=wrap;html=1;fontSize=14;fillColor=#cdeb8b;strokeColor=#36393d;" vertex="1" parent="JB5CNt8v3fBcQ30ta5E3-44">
          <mxGeometry y="30" width="120" height="60" as="geometry" />
        </mxCell>
        <mxCell id="JB5CNt8v3fBcQ30ta5E3-41" value="" style="rounded=0;whiteSpace=wrap;html=1;fontSize=14;fillColor=#eeeeee;strokeColor=#36393d;" vertex="1" parent="JB5CNt8v3fBcQ30ta5E3-44">
          <mxGeometry x="10" y="40" width="70" height="40" as="geometry" />
        </mxCell>
        <mxCell id="JB5CNt8v3fBcQ30ta5E3-42" value="" style="rounded=0;whiteSpace=wrap;html=1;fontSize=14;fillColor=#000000;" vertex="1" parent="JB5CNt8v3fBcQ30ta5E3-44">
          <mxGeometry x="104" y="35" width="10" height="50" as="geometry" />
        </mxCell>
        <mxCell id="JB5CNt8v3fBcQ30ta5E3-43" value="&lt;b&gt;bPOL12V CLP optional&lt;/b&gt;" style="text;html=1;strokeColor=none;fillColor=none;align=left;verticalAlign=middle;whiteSpace=wrap;rounded=0;fontSize=14;" vertex="1" parent="JB5CNt8v3fBcQ30ta5E3-45">
          <mxGeometry width="100" height="30" as="geometry" />
        </mxCell>
        <mxCell id="JB5CNt8v3fBcQ30ta5E3-46" value="" style="whiteSpace=wrap;html=1;aspect=fixed;glass=0;fontSize=14;fillColor=#cdeb8b;strokeColor=#36393d;" vertex="1" parent="1">
          <mxGeometry x="285" y="325" width="145" height="145" as="geometry" />
        </mxCell>
        <mxCell id="JB5CNt8v3fBcQ30ta5E3-47" value="" style="rounded=0;whiteSpace=wrap;html=1;glass=0;fontSize=14;fillColor=#f5f5f5;strokeColor=#666666;fontColor=#333333;" vertex="1" parent="1">
          <mxGeometry x="384" y="325" width="60" height="30" as="geometry" />
        </mxCell>
        <mxCell id="JB5CNt8v3fBcQ30ta5E3-48" value="" style="rounded=0;whiteSpace=wrap;html=1;glass=0;fontSize=14;fillColor=#f5f5f5;strokeColor=#666666;fontColor=#333333;" vertex="1" parent="1">
          <mxGeometry x="384" y="360" width="60" height="30" as="geometry" />
        </mxCell>
        <mxCell id="JB5CNt8v3fBcQ30ta5E3-49" value="" style="rounded=0;whiteSpace=wrap;html=1;glass=0;fontSize=14;fillColor=#f5f5f5;strokeColor=#666666;fontColor=#333333;" vertex="1" parent="1">
          <mxGeometry x="384" y="402.75" width="60" height="30" as="geometry" />
        </mxCell>
        <mxCell id="JB5CNt8v3fBcQ30ta5E3-50" value="" style="rounded=0;whiteSpace=wrap;html=1;glass=0;fontSize=14;fillColor=#f5f5f5;strokeColor=#666666;fontColor=#333333;" vertex="1" parent="1">
          <mxGeometry x="384" y="440" width="60" height="30" as="geometry" />
        </mxCell>
        <mxCell id="JB5CNt8v3fBcQ30ta5E3-51" value="&lt;b&gt;back-end&lt;br&gt;FC7 + FMC&lt;/b&gt;" style="text;html=1;strokeColor=none;fillColor=none;align=center;verticalAlign=middle;whiteSpace=wrap;rounded=0;glass=0;fontSize=14;rotation=90;" vertex="1" parent="1">
          <mxGeometry x="300" y="382.5" width="90" height="30" as="geometry" />
        </mxCell>
        <mxCell id="JB5CNt8v3fBcQ30ta5E3-66" value="" style="group" vertex="1" connectable="0" parent="1">
          <mxGeometry x="285" y="512.5" width="426.5" height="167.5" as="geometry" />
        </mxCell>
        <mxCell id="JB5CNt8v3fBcQ30ta5E3-53" value="" style="whiteSpace=wrap;html=1;aspect=fixed;glass=0;fontSize=14;fillColor=#cdeb8b;strokeColor=#36393d;" vertex="1" parent="JB5CNt8v3fBcQ30ta5E3-66">
          <mxGeometry width="145" height="145" as="geometry" />
        </mxCell>
        <mxCell id="JB5CNt8v3fBcQ30ta5E3-54" value="" style="rounded=0;whiteSpace=wrap;html=1;glass=0;fontSize=14;fillColor=#f5f5f5;strokeColor=#666666;fontColor=#333333;" vertex="1" parent="JB5CNt8v3fBcQ30ta5E3-66">
          <mxGeometry x="99" width="60" height="30" as="geometry" />
        </mxCell>
        <mxCell id="JB5CNt8v3fBcQ30ta5E3-55" value="" style="rounded=0;whiteSpace=wrap;html=1;glass=0;fontSize=14;fillColor=#f5f5f5;strokeColor=#666666;fontColor=#333333;" vertex="1" parent="JB5CNt8v3fBcQ30ta5E3-66">
          <mxGeometry x="99" y="35" width="60" height="30" as="geometry" />
        </mxCell>
        <mxCell id="JB5CNt8v3fBcQ30ta5E3-56" value="" style="rounded=0;whiteSpace=wrap;html=1;glass=0;fontSize=14;fillColor=#f5f5f5;strokeColor=#666666;fontColor=#333333;" vertex="1" parent="JB5CNt8v3fBcQ30ta5E3-66">
          <mxGeometry x="99" y="77.75" width="60" height="30" as="geometry" />
        </mxCell>
        <mxCell id="JB5CNt8v3fBcQ30ta5E3-57" value="" style="rounded=0;whiteSpace=wrap;html=1;glass=0;fontSize=14;fillColor=#f5f5f5;strokeColor=#666666;fontColor=#333333;" vertex="1" parent="JB5CNt8v3fBcQ30ta5E3-66">
          <mxGeometry x="99" y="115" width="60" height="30" as="geometry" />
        </mxCell>
        <mxCell id="JB5CNt8v3fBcQ30ta5E3-58" value="&lt;b&gt;back-end: Kansas DP FMC&lt;br&gt;&lt;/b&gt;" style="text;html=1;strokeColor=none;fillColor=none;align=center;verticalAlign=middle;whiteSpace=wrap;rounded=0;glass=0;fontSize=14;rotation=90;" vertex="1" parent="JB5CNt8v3fBcQ30ta5E3-66">
          <mxGeometry x="15" y="57.5" width="90" height="30" as="geometry" />
        </mxCell>
        <mxCell id="JB5CNt8v3fBcQ30ta5E3-62" value="" style="group" vertex="1" connectable="0" parent="JB5CNt8v3fBcQ30ta5E3-66">
          <mxGeometry x="336.5" y="11.5" width="90" height="120.25" as="geometry" />
        </mxCell>
        <mxCell id="JB5CNt8v3fBcQ30ta5E3-52" value="" style="rounded=0;whiteSpace=wrap;html=1;" vertex="1" parent="JB5CNt8v3fBcQ30ta5E3-62">
          <mxGeometry x="10" width="80" height="120" as="geometry" />
        </mxCell>
        <mxCell id="JB5CNt8v3fBcQ30ta5E3-59" value="" style="rounded=0;whiteSpace=wrap;html=1;glass=0;fontSize=14;fillColor=#4D4D4D;" vertex="1" parent="JB5CNt8v3fBcQ30ta5E3-62">
          <mxGeometry x="18.5" y="21" width="20" height="35" as="geometry" />
        </mxCell>
        <mxCell id="JB5CNt8v3fBcQ30ta5E3-61" value="&lt;b&gt;&lt;font style=&quot;font-size: 16px;&quot;&gt;Data Mezzanine&lt;/font&gt;&lt;/b&gt;" style="text;html=1;strokeColor=none;fillColor=none;align=center;verticalAlign=middle;whiteSpace=wrap;rounded=0;fontSize=14;rotation=90;" vertex="1" parent="JB5CNt8v3fBcQ30ta5E3-62">
          <mxGeometry x="30" y="45" width="60" height="30" as="geometry" />
        </mxCell>
        <mxCell id="JB5CNt8v3fBcQ30ta5E3-85" value="" style="rounded=0;whiteSpace=wrap;html=1;glass=0;fontSize=14;fillColor=#4D4D4D;" vertex="1" parent="JB5CNt8v3fBcQ30ta5E3-62">
          <mxGeometry x="18.5" y="64" width="20" height="35" as="geometry" />
        </mxCell>
        <mxCell id="JB5CNt8v3fBcQ30ta5E3-63" value="&lt;font style=&quot;font-size: 12px;&quot;&gt;&lt;b&gt;dual display port&lt;/b&gt;&lt;/font&gt;" style="text;html=1;strokeColor=none;fillColor=none;align=left;verticalAlign=middle;whiteSpace=wrap;rounded=0;glass=0;fontSize=14;" vertex="1" parent="JB5CNt8v3fBcQ30ta5E3-66">
          <mxGeometry x="346.5" y="137.5" width="80" height="30" as="geometry" />
        </mxCell>
        <mxCell id="JB5CNt8v3fBcQ30ta5E3-64" style="edgeStyle=orthogonalEdgeStyle;rounded=0;orthogonalLoop=1;jettySize=auto;html=1;exitX=0;exitY=0.5;exitDx=0;exitDy=0;entryX=1;entryY=0.5;entryDx=0;entryDy=0;fontSize=12;endArrow=none;endFill=0;elbow=vertical;strokeWidth=5;strokeColor=#B3B3B3;" edge="1" parent="JB5CNt8v3fBcQ30ta5E3-66" source="JB5CNt8v3fBcQ30ta5E3-59" target="JB5CNt8v3fBcQ30ta5E3-55">
          <mxGeometry relative="1" as="geometry" />
        </mxCell>
        <mxCell id="JB5CNt8v3fBcQ30ta5E3-86" style="edgeStyle=orthogonalEdgeStyle;rounded=0;jumpSize=6;orthogonalLoop=1;jettySize=auto;html=1;exitX=0;exitY=0.5;exitDx=0;exitDy=0;entryX=1;entryY=0.5;entryDx=0;entryDy=0;strokeColor=#B3B3B3;strokeWidth=5;fontSize=12;endArrow=none;endFill=0;elbow=vertical;" edge="1" parent="JB5CNt8v3fBcQ30ta5E3-66" source="JB5CNt8v3fBcQ30ta5E3-85" target="JB5CNt8v3fBcQ30ta5E3-56">
          <mxGeometry relative="1" as="geometry" />
        </mxCell>
        <mxCell id="JB5CNt8v3fBcQ30ta5E3-67" value="" style="group" vertex="1" connectable="0" parent="1">
          <mxGeometry x="285" y="680" width="426.5" height="167.5" as="geometry" />
        </mxCell>
        <mxCell id="JB5CNt8v3fBcQ30ta5E3-90" value="" style="group" vertex="1" connectable="0" parent="JB5CNt8v3fBcQ30ta5E3-67">
          <mxGeometry width="426.5" height="167.5" as="geometry" />
        </mxCell>
        <mxCell id="JB5CNt8v3fBcQ30ta5E3-68" value="" style="whiteSpace=wrap;html=1;aspect=fixed;glass=0;fontSize=14;fillColor=#cdeb8b;strokeColor=#36393d;" vertex="1" parent="JB5CNt8v3fBcQ30ta5E3-90">
          <mxGeometry width="145" height="145" as="geometry" />
        </mxCell>
        <mxCell id="JB5CNt8v3fBcQ30ta5E3-69" value="" style="rounded=0;whiteSpace=wrap;html=1;glass=0;fontSize=14;fillColor=#f5f5f5;strokeColor=#666666;fontColor=#333333;" vertex="1" parent="JB5CNt8v3fBcQ30ta5E3-90">
          <mxGeometry x="99" width="60" height="30" as="geometry" />
        </mxCell>
        <mxCell id="JB5CNt8v3fBcQ30ta5E3-70" value="" style="rounded=0;whiteSpace=wrap;html=1;glass=0;fontSize=14;fillColor=#f5f5f5;strokeColor=#666666;fontColor=#333333;" vertex="1" parent="JB5CNt8v3fBcQ30ta5E3-90">
          <mxGeometry x="99" y="35" width="60" height="30" as="geometry" />
        </mxCell>
        <mxCell id="JB5CNt8v3fBcQ30ta5E3-71" value="" style="rounded=0;whiteSpace=wrap;html=1;glass=0;fontSize=14;fillColor=#f5f5f5;strokeColor=#666666;fontColor=#333333;" vertex="1" parent="JB5CNt8v3fBcQ30ta5E3-90">
          <mxGeometry x="99" y="77.75" width="60" height="30" as="geometry" />
        </mxCell>
        <mxCell id="JB5CNt8v3fBcQ30ta5E3-72" value="" style="rounded=0;whiteSpace=wrap;html=1;glass=0;fontSize=14;fillColor=#f5f5f5;strokeColor=#666666;fontColor=#333333;" vertex="1" parent="JB5CNt8v3fBcQ30ta5E3-90">
          <mxGeometry x="99" y="115" width="60" height="30" as="geometry" />
        </mxCell>
        <mxCell id="JB5CNt8v3fBcQ30ta5E3-73" value="&lt;b&gt;back-end: Kansas DP FMC&lt;br&gt;&lt;/b&gt;" style="text;html=1;strokeColor=none;fillColor=none;align=center;verticalAlign=middle;whiteSpace=wrap;rounded=0;glass=0;fontSize=14;rotation=90;" vertex="1" parent="JB5CNt8v3fBcQ30ta5E3-90">
          <mxGeometry x="15" y="57.5" width="90" height="30" as="geometry" />
        </mxCell>
        <mxCell id="JB5CNt8v3fBcQ30ta5E3-74" value="" style="group" vertex="1" connectable="0" parent="JB5CNt8v3fBcQ30ta5E3-90">
          <mxGeometry x="336.5" y="11.5" width="90" height="120.25" as="geometry" />
        </mxCell>
        <mxCell id="JB5CNt8v3fBcQ30ta5E3-75" value="" style="rounded=0;whiteSpace=wrap;html=1;" vertex="1" parent="JB5CNt8v3fBcQ30ta5E3-74">
          <mxGeometry x="10" width="80" height="120" as="geometry" />
        </mxCell>
        <mxCell id="JB5CNt8v3fBcQ30ta5E3-78" value="&lt;b&gt;&lt;font style=&quot;font-size: 16px;&quot;&gt;Data Mezzanine&lt;/font&gt;&lt;/b&gt;" style="text;html=1;strokeColor=none;fillColor=none;align=center;verticalAlign=middle;whiteSpace=wrap;rounded=0;fontSize=14;rotation=90;" vertex="1" parent="JB5CNt8v3fBcQ30ta5E3-74">
          <mxGeometry x="30" y="45" width="60" height="30" as="geometry" />
        </mxCell>
        <mxCell id="JB5CNt8v3fBcQ30ta5E3-83" value="" style="rounded=0;whiteSpace=wrap;html=1;glass=0;fontSize=12;fillColor=#fff2cc;strokeColor=#d6b656;" vertex="1" parent="JB5CNt8v3fBcQ30ta5E3-74">
          <mxGeometry x="18.5" y="32.5" width="11.5" height="55" as="geometry" />
        </mxCell>
        <mxCell id="JB5CNt8v3fBcQ30ta5E3-79" value="&lt;font style=&quot;font-size: 12px;&quot;&gt;&lt;b&gt;e-link Molex connector&lt;/b&gt;&lt;/font&gt;" style="text;html=1;strokeColor=none;fillColor=none;align=left;verticalAlign=middle;whiteSpace=wrap;rounded=0;glass=0;fontSize=14;" vertex="1" parent="JB5CNt8v3fBcQ30ta5E3-90">
          <mxGeometry x="346.5" y="137.5" width="80" height="30" as="geometry" />
        </mxCell>
        <mxCell id="JB5CNt8v3fBcQ30ta5E3-80" style="edgeStyle=orthogonalEdgeStyle;rounded=0;orthogonalLoop=1;jettySize=auto;html=1;entryX=1;entryY=0.5;entryDx=0;entryDy=0;fontSize=12;endArrow=none;endFill=0;elbow=vertical;strokeWidth=5;strokeColor=#B3B3B3;" edge="1" parent="JB5CNt8v3fBcQ30ta5E3-90" target="JB5CNt8v3fBcQ30ta5E3-70">
          <mxGeometry relative="1" as="geometry">
            <mxPoint x="235" y="60" as="sourcePoint" />
          </mxGeometry>
        </mxCell>
        <mxCell id="JB5CNt8v3fBcQ30ta5E3-81" style="edgeStyle=orthogonalEdgeStyle;rounded=0;orthogonalLoop=1;jettySize=auto;html=1;entryX=1;entryY=0.5;entryDx=0;entryDy=0;fontSize=12;endArrow=none;endFill=0;elbow=vertical;jumpSize=6;strokeWidth=5;strokeColor=#B3B3B3;" edge="1" parent="JB5CNt8v3fBcQ30ta5E3-90" target="JB5CNt8v3fBcQ30ta5E3-71">
          <mxGeometry relative="1" as="geometry">
            <mxPoint x="235" y="80" as="sourcePoint" />
          </mxGeometry>
        </mxCell>
        <mxCell id="JB5CNt8v3fBcQ30ta5E3-82" value="" style="rounded=0;whiteSpace=wrap;html=1;glass=0;fontSize=12;fillColor=#d5e8d4;strokeColor=#82b366;" vertex="1" parent="JB5CNt8v3fBcQ30ta5E3-90">
          <mxGeometry x="210" y="40" width="80" height="61.63" as="geometry" />
        </mxCell>
        <mxCell id="JB5CNt8v3fBcQ30ta5E3-84" value="" style="rounded=0;whiteSpace=wrap;html=1;glass=0;fontSize=12;fillColor=#fff2cc;strokeColor=#d6b656;" vertex="1" parent="JB5CNt8v3fBcQ30ta5E3-90">
          <mxGeometry x="275" y="43.32000000000005" width="11.5" height="55" as="geometry" />
        </mxCell>
        <mxCell id="JB5CNt8v3fBcQ30ta5E3-87" value="" style="rounded=0;whiteSpace=wrap;html=1;glass=0;fontSize=14;fillColor=#4D4D4D;" vertex="1" parent="JB5CNt8v3fBcQ30ta5E3-90">
          <mxGeometry x="215" y="52.5" width="20" height="35" as="geometry" />
        </mxCell>
        <mxCell id="JB5CNt8v3fBcQ30ta5E3-88" value="" style="rounded=0;whiteSpace=wrap;html=1;glass=0;fontSize=12;fillColor=#FFF2CC;strokeColor=#d6b656;fillStyle=auto;" vertex="1" parent="JB5CNt8v3fBcQ30ta5E3-90">
          <mxGeometry x="285.5" y="55" width="75" height="31.63" as="geometry" />
        </mxCell>
        <mxCell id="JB5CNt8v3fBcQ30ta5E3-89" value="&lt;font style=&quot;font-size: 12px;&quot;&gt;&lt;b&gt;e-link - DP adapter&lt;/b&gt;&lt;/font&gt;" style="text;html=1;strokeColor=none;fillColor=none;align=left;verticalAlign=middle;whiteSpace=wrap;rounded=0;glass=0;fontSize=14;" vertex="1" parent="JB5CNt8v3fBcQ30ta5E3-90">
          <mxGeometry x="215" y="137.5" width="80" height="30" as="geometry" />
        </mxCell>
        <mxCell id="JB5CNt8v3fBcQ30ta5E3-91" value="" style="group" vertex="1" connectable="0" parent="1">
          <mxGeometry x="285" y="849" width="426.5" height="167.5" as="geometry" />
        </mxCell>
        <mxCell id="JB5CNt8v3fBcQ30ta5E3-92" value="" style="whiteSpace=wrap;html=1;aspect=fixed;glass=0;fontSize=14;fillColor=#cdeb8b;strokeColor=#36393d;" vertex="1" parent="JB5CNt8v3fBcQ30ta5E3-91">
          <mxGeometry width="145" height="145" as="geometry" />
        </mxCell>
        <mxCell id="JB5CNt8v3fBcQ30ta5E3-96" value="" style="rounded=0;whiteSpace=wrap;html=1;glass=0;fontSize=14;fillColor=#f5f5f5;strokeColor=#666666;fontColor=#333333;" vertex="1" parent="JB5CNt8v3fBcQ30ta5E3-91">
          <mxGeometry x="99" y="57.63" width="60" height="30" as="geometry" />
        </mxCell>
        <mxCell id="JB5CNt8v3fBcQ30ta5E3-97" value="&lt;b&gt;back-end: SFP FMC&lt;br&gt;&lt;/b&gt;" style="text;html=1;strokeColor=none;fillColor=none;align=center;verticalAlign=middle;whiteSpace=wrap;rounded=0;glass=0;fontSize=14;rotation=90;" vertex="1" parent="JB5CNt8v3fBcQ30ta5E3-91">
          <mxGeometry x="15" y="57.5" width="90" height="30" as="geometry" />
        </mxCell>
        <mxCell id="JB5CNt8v3fBcQ30ta5E3-98" value="" style="group" vertex="1" connectable="0" parent="JB5CNt8v3fBcQ30ta5E3-91">
          <mxGeometry x="336.5" y="11.5" width="90" height="120.25" as="geometry" />
        </mxCell>
        <mxCell id="JB5CNt8v3fBcQ30ta5E3-99" value="" style="rounded=0;whiteSpace=wrap;html=1;" vertex="1" parent="JB5CNt8v3fBcQ30ta5E3-98">
          <mxGeometry x="10" width="80" height="120" as="geometry" />
        </mxCell>
        <mxCell id="JB5CNt8v3fBcQ30ta5E3-100" value="&lt;b&gt;&lt;font style=&quot;font-size: 16px;&quot;&gt;Data Mezzanine&lt;/font&gt;&lt;/b&gt;" style="text;html=1;strokeColor=none;fillColor=none;align=center;verticalAlign=middle;whiteSpace=wrap;rounded=0;fontSize=14;rotation=90;" vertex="1" parent="JB5CNt8v3fBcQ30ta5E3-98">
          <mxGeometry x="30" y="45" width="60" height="30" as="geometry" />
        </mxCell>
        <mxCell id="JB5CNt8v3fBcQ30ta5E3-101" value="" style="rounded=0;whiteSpace=wrap;html=1;glass=0;fontSize=12;fillColor=#fff2cc;strokeColor=#d6b656;" vertex="1" parent="JB5CNt8v3fBcQ30ta5E3-98">
          <mxGeometry x="18.5" y="32.5" width="11.5" height="55" as="geometry" />
        </mxCell>
        <mxCell id="JB5CNt8v3fBcQ30ta5E3-102" value="&lt;font style=&quot;font-size: 12px;&quot;&gt;&lt;b&gt;e-link Molex connector&lt;/b&gt;&lt;/font&gt;" style="text;html=1;strokeColor=none;fillColor=none;align=left;verticalAlign=middle;whiteSpace=wrap;rounded=0;glass=0;fontSize=14;" vertex="1" parent="JB5CNt8v3fBcQ30ta5E3-91">
          <mxGeometry x="346.5" y="137.5" width="80" height="30" as="geometry" />
        </mxCell>
        <mxCell id="JB5CNt8v3fBcQ30ta5E3-105" value="" style="rounded=0;whiteSpace=wrap;html=1;glass=0;fontSize=12;fillColor=#d5e8d4;strokeColor=#82b366;" vertex="1" parent="JB5CNt8v3fBcQ30ta5E3-91">
          <mxGeometry x="210" y="40" width="80" height="61.63" as="geometry" />
        </mxCell>
        <mxCell id="JB5CNt8v3fBcQ30ta5E3-106" value="" style="rounded=0;whiteSpace=wrap;html=1;glass=0;fontSize=12;fillColor=#fff2cc;strokeColor=#d6b656;" vertex="1" parent="JB5CNt8v3fBcQ30ta5E3-91">
          <mxGeometry x="275" y="43.32000000000005" width="11.5" height="55" as="geometry" />
        </mxCell>
        <mxCell id="JB5CNt8v3fBcQ30ta5E3-107" value="" style="rounded=0;whiteSpace=wrap;html=1;glass=0;fontSize=14;fillColor=#99FF99;" vertex="1" parent="JB5CNt8v3fBcQ30ta5E3-91">
          <mxGeometry x="225" y="53.75" width="45" height="37.5" as="geometry" />
        </mxCell>
        <mxCell id="JB5CNt8v3fBcQ30ta5E3-108" value="" style="rounded=0;whiteSpace=wrap;html=1;glass=0;fontSize=12;fillColor=#FFF2CC;strokeColor=#d6b656;fillStyle=auto;" vertex="1" parent="JB5CNt8v3fBcQ30ta5E3-91">
          <mxGeometry x="285.5" y="55" width="75" height="31.63" as="geometry" />
        </mxCell>
        <mxCell id="JB5CNt8v3fBcQ30ta5E3-109" value="&lt;font style=&quot;font-size: 12px;&quot;&gt;&lt;b&gt;lpGBT/VTRX+&lt;br&gt;IT port-card&lt;br&gt;&lt;/b&gt;&lt;/font&gt;" style="text;html=1;strokeColor=none;fillColor=none;align=left;verticalAlign=middle;whiteSpace=wrap;rounded=0;glass=0;fontSize=14;" vertex="1" parent="JB5CNt8v3fBcQ30ta5E3-91">
          <mxGeometry x="215" y="137.5" width="80" height="30" as="geometry" />
        </mxCell>
        <mxCell id="JB5CNt8v3fBcQ30ta5E3-112" value="" style="group" vertex="1" connectable="0" parent="JB5CNt8v3fBcQ30ta5E3-91">
          <mxGeometry x="159" y="56.629999999999995" width="66" height="10.000000000000114" as="geometry" />
        </mxCell>
        <mxCell id="JB5CNt8v3fBcQ30ta5E3-110" style="rounded=0;jumpSize=6;orthogonalLoop=1;jettySize=auto;html=1;exitX=0;exitY=0.5;exitDx=0;exitDy=0;entryX=1;entryY=0.5;entryDx=0;entryDy=0;strokeColor=#66B2FF;strokeWidth=3;fontSize=12;endArrow=none;endFill=0;elbow=vertical;" edge="1" parent="JB5CNt8v3fBcQ30ta5E3-112">
          <mxGeometry relative="1" as="geometry">
            <mxPoint x="66" y="9.870000000000005" as="sourcePoint" />
            <mxPoint y="10.000000000000114" as="targetPoint" />
          </mxGeometry>
        </mxCell>
        <mxCell id="JB5CNt8v3fBcQ30ta5E3-111" value="" style="ellipse;whiteSpace=wrap;html=1;aspect=fixed;glass=0;fillStyle=auto;fontSize=12;fillColor=none;strokeColor=#66B2FF;strokeWidth=3;" vertex="1" parent="JB5CNt8v3fBcQ30ta5E3-112">
          <mxGeometry x="26" width="10" height="10" as="geometry" />
        </mxCell>
        <mxCell id="JB5CNt8v3fBcQ30ta5E3-113" value="" style="group" vertex="1" connectable="0" parent="1">
          <mxGeometry x="444" y="919.63" width="66" height="10.000000000000114" as="geometry" />
        </mxCell>
        <mxCell id="JB5CNt8v3fBcQ30ta5E3-114" style="rounded=0;jumpSize=6;orthogonalLoop=1;jettySize=auto;html=1;exitX=0;exitY=0.5;exitDx=0;exitDy=0;entryX=1;entryY=0.5;entryDx=0;entryDy=0;strokeColor=#FF6666;strokeWidth=3;fontSize=12;endArrow=none;endFill=0;elbow=vertical;" edge="1" parent="JB5CNt8v3fBcQ30ta5E3-113">
          <mxGeometry relative="1" as="geometry">
            <mxPoint x="66" y="9.870000000000005" as="sourcePoint" />
            <mxPoint y="10.000000000000114" as="targetPoint" />
          </mxGeometry>
        </mxCell>
        <mxCell id="JB5CNt8v3fBcQ30ta5E3-115" value="" style="ellipse;whiteSpace=wrap;html=1;aspect=fixed;glass=0;fillStyle=auto;fontSize=12;fillColor=none;strokeColor=#FF6666;strokeWidth=3;" vertex="1" parent="JB5CNt8v3fBcQ30ta5E3-113">
          <mxGeometry x="26" width="10" height="10" as="geometry" />
        </mxCell>
      </root>
    </mxGraphModel>
  </diagram>
</mxfile>
